# xmcd
#
# Track frame offsets:
#	150
#	16855
#	30347
#	44050
#	63408
#	80774
#	98665
#	111240
#	132608
#	145421
#	165360
#	183277
#	205629
#
# Disc length: 3038 seconds
#
# Revision: 1
# Processed by: cddbd v1.5.1PL0 Copyright (c) Steve Scherf et al.
# Submitted via: audiograbber 1.82.02
#
DISCID=ad0bdc0d
DTITLE=Marcia Hines - Marcia Hinesight Songs From The Journey
DYEAR=2004
DGENRE=
TTITLE0=Ain't Nobody
TTITLE1=Fine Brown Frame
TTITLE2=Take Me In Your Arms
TTITLE3=Shower The People (featuring Belinda Emmett)
TTITLE4=When I Fall In Love
TTITLE5=I.G.Y. (What A Beautiful World)
TTITLE6=You Are Everything
TTITLE7=Sunshine (featuring Ian Moss)
TTITLE8=Your Send Me
TTITLE9=How Deep Is Your Love
TTITLE10=Ooh Boy
TTITLE11=Something So Right
TTITLE12=Forever Young
EXTD=
EXTT0=
EXTT1=
EXTT2=
EXTT3=
EXTT4=
EXTT5=
EXTT6=
EXTT7=
EXTT8=
EXTT9=
EXTT10=
EXTT11=
EXTT12=
PLAYORDER=
